<?xml version="1.0" encoding="UTF-8" standalone="no"?>
<svg
   clip-rule="evenodd"
   fill-rule="evenodd"
   viewBox="0 0 170 220"
   version="1.1"
   id="svg21"
   sodipodi:docname="zigmagic.svg"
   width="170"
   height="220"
   inkscape:version="1.3.1 (91b66b0783, 2023-11-16, custom)"
   xmlns:inkscape="http://www.inkscape.org/namespaces/inkscape"
   xmlns:sodipodi="http://sodipodi.sourceforge.net/DTD/sodipodi-0.dtd"
   xmlns="http://www.w3.org/2000/svg"
   xmlns:svg="http://www.w3.org/2000/svg">
  <defs
     id="defs21" />
  <sodipodi:namedview
     id="namedview21"
     pagecolor="#ffffff"
     bordercolor="#000000"
     borderopacity="0.25"
     inkscape:showpageshadow="2"
     inkscape:pageopacity="0.0"
     inkscape:pagecheckerboard="0"
     inkscape:deskcolor="#d1d1d1"
     showgrid="false"
     inkscape:zoom="1.1775"
     inkscape:cx="76.857749"
     inkscape:cy="100.63694"
     inkscape:current-layer="svg21" />
  <g
     id="g21"
     transform="translate(-195.28346,-92.497584)">
    <g
       stroke="#000000"
       stroke-width="1.2"
       id="g7"
       style="fill-rule:nonzero">
      <path
         d="m 238.878,137.653 c -10.814,-2.298 -21.355,-10 -17.571,-12.433 17.823,-11.289 27.27,-1.028 41.489,-4.849 4.731,-0.678 10.557,-4.89 7.99,-1.106 -21.233,14.484 -30.298,-5.043 -44.883,6.359 -4.865,2.995 6.193,6.717 14.325,8.787 13.903,3.538 27.805,-10.014 32.84,-6.607 1.922,1.3 1.623,3.784 0.269,7.433 -2.567,7.093 -6.62,10.947 -10.135,14.682 -1.378,-1.719 9.239,-12.247 6.354,-18.872 -0.95,-2.172 -9.414,1.353 -9.056,1.216 -6.472,2.454 -12.067,7.422 -21.623,5.39 z"
         id="path1" />
      <path
         d="m 284.637,116.209 c 1.06,-0.151 1.609,0.583 1.757,1.485 0.184,1.128 -0.543,1.959 -1.216,1.959 -0.813,0 -1.149,-0.406 -1.556,-1.351 -0.067,-0.877 -0.142,-1.929 1.015,-2.093 z"
         id="path2" />
      <path
         d="m 247.625,187.5 c 1.542,-7.476 3.838,-14.417 2.299,-21.893 2.769,0.878 4.335,6.763 4.391,7.366 1.623,17.299 -9.459,38.382 -17.772,48.18 1.757,-8.515 8.749,-22.35 11.082,-33.653 z"
         id="path3" />
      <path
         d="m 279.448,232.708 c 11.836,3.049 27.166,0.032 38.922,-1.079 -18.921,8.377 -40.883,6.553 -58.858,2.228 -14.126,-1.814 -21.691,-2.228 -19.866,-5.406 0.608,-4.933 21.962,-0.337 39.801,4.257 z"
         id="path4" />
      <path
         d="m 309.181,195.673 c 0.111,-12.387 5.897,-24.537 4.325,-37.03 -30.813,2.974 -71.551,14.355 -90.888,-2.771 -2.362,-2.094 1.483,-4.4 3.041,-4.796 11.486,-2.925 36.762,-8.649 35.409,-6.757 -0.183,0.253 -2.677,0.358 -4.865,0.81 -14.107,2.909 -27.571,7.839 -27.029,9.731 -0.541,2.161 10.455,5.988 14.866,6.485 30.291,3.434 55.885,-6.149 88.686,-7.486 2.217,-0.086 2.664,-1.744 2.675,-2.514 0.075,-6.012 -41.019,-7.096 -36.153,-8.988 -2.702,-0.81 42.57,-0.676 40.747,9.801 -0.81,6.485 -17.417,4.33 -22.974,5.944 3.431,15.464 -6.02,29.885 -3.525,45.852 1.16,7.422 4.365,13.905 7.376,20.573 -5.743,-4.257 -11.787,-17.793 -11.69,-28.854 z"
         id="path5" />
      <path
         d="m 263.445,155.47 c -2.996,-0.285 -7.186,-1.125 -8.278,-4.537 -0.172,-0.541 1.06,-1.547 1.822,-0.885 -0.455,-0.399 3.503,2.586 6.66,2.586 17.366,-0.002 39.395,-1.354 50.611,-3.246 0.541,3.243 -33.274,7.738 -50.815,6.082 z"
         id="path6" />
      <path
         d="m 276.578,109.022 c 10.119,3.404 14.056,-6.623 35.545,-1.486 7.535,1.804 8.555,5.251 6.892,8.65 -0.444,0.909 -0.544,1.73 -0.81,2.433 -4.866,12.839 -12.571,7.86 -19.732,20.022 -2.739,4.647 -3.095,8.199 -4.378,9.144 -4.258,3.988 -3.733,-11.599 12.484,-19.842 2.029,-1.372 6.488,-4.19 5.544,-4.865 -6.303,0.834 -9.056,0.204 -11.623,-2.161 -0.966,-0.891 -1.276,0.116 -2.148,-1.106 -0.675,-0.948 1.585,-2.63 1.876,-2.656 1.663,-0.167 0,2.567 3.851,3.579 3.388,0.891 6.184,0.724 9.125,0.046 3.311,-0.762 3.647,-8.176 1.758,-9.594 -3.17,-2.377 -12.029,-3.108 -20.612,-0.878 -5.565,1.446 -10.729,4.637 -27.487,-2.524 -6.542,-2.799 -16.249,-6.981 -29.479,-2.68 -2.753,0.896 -9.995,3.595 -9.053,5.134 3.736,6.109 24.714,2.753 31.084,2.029 7.702,-0.88 10.557,3.76 9.071,4.705 -16.588,-5.434 -35.606,4.978 -42.724,-6.462 -1.806,-2.904 7.665,-6.461 12.029,-7.839 23.516,-7.433 27.677,2.615 38.787,6.351 z"
         id="path7" />
    </g>
  </g>
  <path
     style="font-weight:bold;font-size:45.5633px;font-family:'Workplace Gothic';-inkscape-font-specification:'Workplace Gothic, Bold';white-space:pre;inline-size:270.891;stroke:#1a1a1a;stroke-width:0.888131"
     d="m 8.9185506,166.26887 c 5.6090584,0 11.2181094,0 16.8271674,0 0.05887,2.43599 0.218402,4.9064 -1.154044,6.85275 -3.711822,8.12878 -7.423635,16.25758 -11.135457,24.38636 4.28557,0 8.57114,0 12.85671,0 -0.01965,2.26911 0.620505,5.37681 -2.011733,4.32541 -5.31662,0 -10.633232,0 -15.9498517,0 -0.059007,-2.43609 -0.2188994,-4.90676 1.1566999,-6.85078 3.7235408,-8.12944 7.4470808,-16.25889 11.1706208,-24.38832 -3.92004,0 -7.840072,0 -11.7601124,0 0,-1.44181 0,-2.88361 0,-4.32542 z m 26.2806114,9.22756 c 0,8.77898 0,17.55797 0,26.33696 -1.374305,-0.54098 -4.541866,1.19721 -4.537666,-1.09579 0,-8.41373 0,-16.82745 0,-25.24117 1.512552,0 3.025113,0 4.537666,0 z m 0,-11.63056 c -0.342375,1.85892 0.7111,5.49194 -0.574785,6.15169 -1.446981,-0.4486 -4.627837,1.3065 -3.962881,-1.82632 0.01965,-2.26909 -0.620498,-5.37678 2.011732,-4.32537 0.841978,0 1.683956,0 2.525934,0 z m 20.192606,20.47362 c 0.318167,7.66299 -6.630274,9.41045 -10.852579,9.62405 -0.09235,4.3622 5.393877,1.48982 7.628949,2.83856 5.982415,0.99651 6.051771,11.76185 0.652292,14.09063 -4.338569,2.62593 -10.949713,2.87982 -14.028946,-2.57122 -3.077963,-5.2968 5.080624,-7.70962 1.276225,-11.36623 -0.470183,-4.06533 3.699165,-5.54395 0.04726,-8.53068 -2.782529,-6.24121 2.054556,-13.67693 7.298077,-13.16848 2.772096,-0.48499 4.870754,3.42506 6.607966,-0.0961 2.840656,-1.32182 3.337927,0.8238 2.921124,3.87372 -0.375413,1.47168 -4.043266,-0.52186 -1.815066,2.95082 l 0.198517,1.14143 z m -8.545927,17.0133 c -5.257629,-1.16538 -4.891759,9.2132 0.586114,7.04084 4.84506,1.16515 7.13816,-8.02945 1.198686,-7.04083 -0.594936,0 -1.189864,-1e-5 -1.7848,-1e-5 z m 0.567209,-21.86737 c -6.092296,-0.0325 -3.244935,13.59417 2.084483,8.92417 2.437697,-2.48824 1.518071,-9.17971 -2.084483,-8.92417 z m 27.112489,-13.21655 c 2.452702,9.62729 5.290395,19.11787 7.487141,28.8361 0.04837,0.7858 1.149911,-5.02105 1.870057,-7.11368 1.922765,-7.24081 3.845538,-14.48161 5.768303,-21.72242 1.60289,0.24723 3.982393,-0.49257 5.104867,0.36527 0,11.73308 0,23.46616 0,35.19925 -1.369823,-0.54095 -4.551775,1.19715 -4.528587,-1.09574 0.121218,-7.53261 -0.0267,-15.07683 0.369081,-22.59792 -1.621653,8.07586 -4.171879,15.79113 -6.239291,23.69366 -1.530072,-0.50573 -4.251842,1.12207 -4.85984,-1.03448 -1.94036,-7.56451 -4.420333,-14.92658 -5.917109,-22.65918 0.399789,7.8863 0.253109,15.79583 0.378161,23.69366 -1.374304,-0.54098 -4.541865,1.19721 -4.537666,-1.09579 0,-11.48958 0,-22.97915 0,-34.46873 1.701625,0 3.403258,0 5.104883,0 z m 24.957172,28.11519 c 0.01104,-6.07276 5.228779,-8.19979 9.188769,-8.65082 4.85383,-3.15124 -3.4804,-10.54541 -4.55345,-3.29964 -4.401879,0.39932 -4.05331,-4.56329 -0.0929,-6.38448 3.95213,-2.11924 10.39231,-0.41756 10.55715,6.12166 0.10262,4.97341 -0.0774,9.96204 0.0922,14.92869 1.53838,0.1685 2.65219,4.73456 0.53885,4.87805 -3.37363,1.70663 -4.06947,-5.64912 -6.14475,-0.93713 -3.90012,2.8668 -10.041202,-0.22216 -9.585809,-6.65633 z m 4.537659,-0.19223 c -0.0977,5.96892 7.3986,4.21391 6.05022,-1.38416 0.29389,-3.10048 0.12625,-4.25544 -2.42135,-2.7629 -1.78757,0.10931 -3.68579,1.6474 -3.62887,4.14706 z m 30.21326,-9.85234 c 0.31816,7.66298 -6.63028,9.41045 -10.85258,9.62405 -0.0924,4.3622 5.39388,1.48982 7.62895,2.83856 5.9824,0.9965 6.05176,11.76185 0.65228,14.09063 -4.33856,2.62593 -10.94971,2.87982 -14.02894,-2.57122 -3.07798,-5.29679 5.08064,-7.70962 1.27622,-11.36623 -0.47017,-4.06533 3.69917,-5.54396 0.0473,-8.53068 -2.7825,-6.24121 2.05456,-13.67692 7.29808,-13.16848 2.7721,-0.485 4.87075,3.42507 6.60798,-0.0961 2.84065,-1.32183 3.33791,0.8238 2.92111,3.87372 -0.37541,1.47168 -4.04327,-0.52186 -1.81506,2.95082 l 0.19852,1.14143 z m -8.54594,17.0133 c -5.25763,-1.16537 -4.89174,9.21319 0.58612,7.04084 4.84506,1.16515 7.13816,-8.02946 1.19868,-7.04083 -0.59493,0 -1.18986,-1e-5 -1.7848,-1e-5 z m 0.56721,-21.86737 c -6.09229,-0.0325 -3.24493,13.59418 2.08449,8.92417 2.43769,-2.48824 1.51807,-9.17972 -2.08449,-8.92417 z m 16.71369,-3.98899 c 0,8.77898 0,17.55797 0,26.33696 -1.3743,-0.54098 -4.54186,1.19721 -4.53765,-1.09579 0,-8.41373 0,-16.82745 0,-25.24117 1.51255,0 3.0251,0 4.53765,0 z m 0,-11.63056 c -0.34237,1.85892 0.7111,5.49194 -0.57478,6.15169 -1.44698,-0.4486 -4.62784,1.3065 -3.96287,-1.82632 0.0197,-2.26909 -0.6205,-5.37678 2.01173,-4.32537 0.84198,0 1.68395,0 2.52592,0 z m 11.72231,11.39025 c 2.84408,-1.37925 9.84835,6.56078 4.9817,7.06371 -3.12479,2.42657 -3.66719,-6.28325 -6.96693,-1.76207 -1.95173,4.99473 -2.93189,15.05437 1.98523,17.43082 2.50517,-1.31206 2.96023,-4.78476 6.18352,-2.67178 1.64472,4.26062 -5.78978,8.88624 -9.20863,6.03599 -5.35522,-3.29779 -5.579,-12.41587 -4.27296,-18.83958 0.87071,-4.18589 3.8185,-7.39465 7.29807,-7.25709 z"
     id="text21"
     aria-label="Zig Magic" />
</svg>
