<?xml version="1.0" encoding="UTF-8" standalone="no"?>
<svg
   clip-rule="evenodd"
   fill-rule="evenodd"
   viewBox="0 0 170 220"
   version="1.1"
   id="svg21"
   sodipodi:docname="general-magic-logo@logotyp.us.svg"
   width="170"
   height="220"
   inkscape:version="1.3.1 (91b66b0783, 2023-11-16, custom)"
   xmlns:inkscape="http://www.inkscape.org/namespaces/inkscape"
   xmlns:sodipodi="http://sodipodi.sourceforge.net/DTD/sodipodi-0.dtd"
   xmlns="http://www.w3.org/2000/svg"
   xmlns:svg="http://www.w3.org/2000/svg">
  <defs
     id="defs21" />
  <sodipodi:namedview
     id="namedview21"
     pagecolor="#ffffff"
     bordercolor="#000000"
     borderopacity="0.25"
     inkscape:showpageshadow="2"
     inkscape:pageopacity="0.0"
     inkscape:pagecheckerboard="0"
     inkscape:deskcolor="#d1d1d1"
     showgrid="false"
     inkscape:zoom="1.1775"
     inkscape:cx="76.857749"
     inkscape:cy="100.63694"
     inkscape:current-layer="svg21" />
  <g
     id="g22"
     transform="translate(7.9072838,6.9090087)">
    <g
       id="g21"
       transform="translate(-203.19074,-99.406593)">
      <g
         stroke="#000000"
         stroke-width="1.2"
         id="g7"
         style="fill-rule:nonzero">
        <path
           d="m 238.878,137.653 c -10.814,-2.298 -21.355,-10 -17.571,-12.433 17.823,-11.289 27.27,-1.028 41.489,-4.849 4.731,-0.678 10.557,-4.89 7.99,-1.106 -21.233,14.484 -30.298,-5.043 -44.883,6.359 -4.865,2.995 6.193,6.717 14.325,8.787 13.903,3.538 27.805,-10.014 32.84,-6.607 1.922,1.3 1.623,3.784 0.269,7.433 -2.567,7.093 -6.62,10.947 -10.135,14.682 -1.378,-1.719 9.239,-12.247 6.354,-18.872 -0.95,-2.172 -9.414,1.353 -9.056,1.216 -6.472,2.454 -12.067,7.422 -21.623,5.39 z"
           id="path1" />
        <path
           d="m 284.637,116.209 c 1.06,-0.151 1.609,0.583 1.757,1.485 0.184,1.128 -0.543,1.959 -1.216,1.959 -0.813,0 -1.149,-0.406 -1.556,-1.351 -0.067,-0.877 -0.142,-1.929 1.015,-2.093 z"
           id="path2" />
        <path
           d="m 247.625,187.5 c 1.542,-7.476 3.838,-14.417 2.299,-21.893 2.769,0.878 4.335,6.763 4.391,7.366 1.623,17.299 -9.459,38.382 -17.772,48.18 1.757,-8.515 8.749,-22.35 11.082,-33.653 z"
           id="path3" />
        <path
           d="m 279.448,232.708 c 11.836,3.049 27.166,0.032 38.922,-1.079 -18.921,8.377 -40.883,6.553 -58.858,2.228 -14.126,-1.814 -21.691,-2.228 -19.866,-5.406 0.608,-4.933 21.962,-0.337 39.801,4.257 z"
           id="path4" />
        <path
           d="m 309.181,195.673 c 0.111,-12.387 5.897,-24.537 4.325,-37.03 -30.813,2.974 -71.551,14.355 -90.888,-2.771 -2.362,-2.094 1.483,-4.4 3.041,-4.796 11.486,-2.925 36.762,-8.649 35.409,-6.757 -0.183,0.253 -2.677,0.358 -4.865,0.81 -14.107,2.909 -27.571,7.839 -27.029,9.731 -0.541,2.161 10.455,5.988 14.866,6.485 30.291,3.434 55.885,-6.149 88.686,-7.486 2.217,-0.086 2.664,-1.744 2.675,-2.514 0.075,-6.012 -41.019,-7.096 -36.153,-8.988 -2.702,-0.81 42.57,-0.676 40.747,9.801 -0.81,6.485 -17.417,4.33 -22.974,5.944 3.431,15.464 -6.02,29.885 -3.525,45.852 1.16,7.422 4.365,13.905 7.376,20.573 -5.743,-4.257 -11.787,-17.793 -11.69,-28.854 z"
           id="path5" />
        <path
           d="m 263.445,155.47 c -2.996,-0.285 -7.186,-1.125 -8.278,-4.537 -0.172,-0.541 1.06,-1.547 1.822,-0.885 -0.455,-0.399 3.503,2.586 6.66,2.586 17.366,-0.002 39.395,-1.354 50.611,-3.246 0.541,3.243 -33.274,7.738 -50.815,6.082 z"
           id="path6" />
        <path
           d="m 276.578,109.022 c 10.119,3.404 14.056,-6.623 35.545,-1.486 7.535,1.804 8.555,5.251 6.892,8.65 -0.444,0.909 -0.544,1.73 -0.81,2.433 -4.866,12.839 -12.571,7.86 -19.732,20.022 -2.739,4.647 -3.095,8.199 -4.378,9.144 -4.258,3.988 -3.733,-11.599 12.484,-19.842 2.029,-1.372 6.488,-4.19 5.544,-4.865 -6.303,0.834 -9.056,0.204 -11.623,-2.161 -0.966,-0.891 -1.276,0.116 -2.148,-1.106 -0.675,-0.948 1.585,-2.63 1.876,-2.656 1.663,-0.167 0,2.567 3.851,3.579 3.388,0.891 6.184,0.724 9.125,0.046 3.311,-0.762 3.647,-8.176 1.758,-9.594 -3.17,-2.377 -12.029,-3.108 -20.612,-0.878 -5.565,1.446 -10.729,4.637 -27.487,-2.524 -6.542,-2.799 -16.249,-6.981 -29.479,-2.68 -2.753,0.896 -9.995,3.595 -9.053,5.134 3.736,6.109 24.714,2.753 31.084,2.029 7.702,-0.88 10.557,3.76 9.071,4.705 -16.588,-5.434 -35.606,4.978 -42.724,-6.462 -1.806,-2.904 7.665,-6.461 12.029,-7.839 23.516,-7.433 27.677,2.615 38.787,6.351 z"
           id="path7" />
      </g>
    </g>
    <text
       xml:space="preserve"
       style="font-size:11.3908px;white-space:pre;inline-size:270.891;display:inline;fill:#000000;stroke:#1a1a1a;stroke-width:0.949236"
       x="146.19974"
       y="334.5787"
       id="text21"
       transform="matrix(0.8299192,0,0,1.0547998,-122.40203,-157.98917)"><tspan
         x="146.19974"
         y="334.5787"
         id="tspan2"><tspan
           style="font-weight:bold;font-size:45.5633px;font-family:'Workplace Gothic';-inkscape-font-specification:'Workplace Gothic, Bold'"
           id="tspan1">Zig Magic</tspan></tspan></text>
  </g>
</svg>
