<svg class="bob" font-family="arial" font-size="14" height="192" width="496" xmlns="http://www.w3.org/2000/svg">
<defs>
<marker id="triangle" markerHeight="8" markerWidth="8" orient="auto" refX="4" refY="2" viewBox="0 0 8 4">
<polygon fill="black" points="0,0 0,4 8,2 0,0"/>
</marker>
<marker id="clear_triangle" markerHeight="10" markerWidth="10" orient="auto" refX="1" refY="7" viewBox="0 0 20 14">
<polygon fill="none" points="2,2 2,12 18,7 2,2" stroke="black" stroke-width="2"/>
</marker>
<marker id="circle" markerHeight="5" markerWidth="5" orient="auto" refX="10" refY="10" viewBox="0 0 20 20">
<circle cx="10" cy="10" fill="black" r="8"/>
</marker>
<marker id="square" markerHeight="5" markerWidth="5" orient="auto" refX="10" refY="10" viewBox="0 0 20 20">
<rect fill="black" height="20" width="20" x="0" y="0"/>
</marker>
<marker id="open_circle" markerHeight="10" markerWidth="10" orient="auto" refX="10" refY="10" viewBox="0 0 20 20">
<circle cx="10" cy="10" fill="white" r="4" stroke="black" stroke-width="2"/>
</marker>
<marker id="big_open_circle" markerHeight="20" markerWidth="20" orient="auto" refX="20" refY="20" viewBox="0 0 40 40">
<circle cx="20" cy="20" fill="white" r="6" stroke="black" stroke-width="2"/>
</marker>
</defs>
<style type="text/css">

    line,path {
      stroke: black;
      stroke-width: 2;
      stroke-opacity: 1;
      fill-opacity: 1;
      stroke-linecap: round;
      stroke-linejoin: miter;
    }
    line.dashed {
        stroke-dasharray: 5;
    }
    circle.solid {
      fill:black;
      stroke: black;
      stroke-width: 2;
      stroke-opacity: 1;
      fill-opacity: 1;
      stroke-linecap: round;
      stroke-linejoin: miter;
    }
    circle.open {
      fill:none;
      stroke: black;
      stroke-width: 2;
      stroke-opacity: 1;
      fill-opacity: 1;
      stroke-linecap: round;
      stroke-linejoin: miter;
    }
    tspan.head{
        fill: none;
        stroke: none;
    }
    
</style>
<rect fill="white" height="192" width="496" x="0" y="0"/>
<g>
<line x1="20" x2="20" y1="56" y2="120"/>
<line x1="20" x2="124" y1="56" y2="56"/>
<line x1="20" x2="36" y1="120" y2="120"/>
<line x1="124" x2="124" y1="56" y2="72"/>
<line x1="124" x2="140" y1="72" y2="72"/>
<line x1="140" x2="140" y1="72" y2="88"/>
<line x1="140" x2="156" y1="88" y2="88"/>
<line marker-end="url(#circle)" x1="156" x2="156" y1="88" y2="120"/>
<line marker-start="url(#circle)" x1="156" x2="156" y1="120" y2="152"/>
<line marker-end="url(#triangle)" marker-start="url(#circle)" x1="156" x2="212" y1="120" y2="120"/>
</g>
<g>
<line x1="36" x2="36" y1="72" y2="136"/>
<line x1="36" x2="124" y1="72" y2="72"/>
<line x1="36" x2="52" y1="136" y2="136"/>
</g>
<g>
<line x1="52" x2="52" y1="88" y2="152"/>
<line x1="52" x2="140" y1="88" y2="88"/>
<line x1="52" x2="156" y1="152" y2="152"/>
</g>
<g>
<line x1="204" x2="204" y1="76" y2="112"/>
<path d="M 208 72 A 4 4 0 0 0 204 76" fill="none"/>
</g>
<g>
<line x1="204" x2="204" y1="128" y2="148"/>
<path d="M 204 148 A 4 4 0 0 0 208 152" fill="none"/>
</g>
<g>
<line x1="208" x2="312" y1="72" y2="72"/>
<path d="M 316 76 A 4 4 0 0 0 312 72" fill="none"/>
</g>
<g>
<line x1="208" x2="312" y1="152" y2="152"/>
<path d="M 312 152 A 4 4 0 0 0 316 148" fill="none"/>
</g>
<g>
<line x1="220" x2="220" y1="104" y2="136"/>
<line x1="220" x2="300" y1="104" y2="104"/>
<line x1="220" x2="300" y1="136" y2="136"/>
<line x1="300" x2="300" y1="104" y2="136"/>
</g>
<g>
<line x1="316" x2="316" y1="76" y2="148"/>
</g>
<g>
<line marker-end="url(#triangle)" x1="316" x2="364" y1="120" y2="120"/>
</g>
<g>
<line x1="372" x2="376" y1="120" y2="112"/>
<line x1="372" x2="376" y1="120" y2="128"/>
<line x1="384" x2="372" y1="96" y2="120"/>
<line x1="384" x2="372" y1="144" y2="120"/>
<line x1="384" x2="386" y1="144" y2="148"/>
<line x1="386" x2="384" y1="92" y2="96"/>
<path d="M 386 148 A 8 8 0 0 0 392 152" fill="none"/>
<path d="M 392 88 A 8 8 0 0 0 386 92" fill="none"/>
</g>
<g>
<line x1="392" x2="436" y1="88" y2="88"/>
<line x1="436" x2="436" y1="56" y2="88"/>
<line x1="436" x2="448" y1="56" y2="56"/>
<line x1="436" x2="472" y1="88" y2="88"/>
<path d="M 448 56 A 8 8 0 0 0 454 52" fill="none"/>
<path d="M 478 92 A 8 8 0 0 0 472 88" fill="none"/>
</g>
<g>
<line x1="392" x2="472" y1="152" y2="152"/>
<path d="M 472 152 A 8 8 0 0 0 478 148" fill="none"/>
</g>
<g>
<line x1="416" x2="418" y1="48" y2="52"/>
<path d="M 416 32 A 16 16 0 0 0 416 48" fill="none"/>
<path d="M 418 52 A 8 8 0 0 0 424 56" fill="none"/>
</g>
<g>
<line x1="418" x2="416" y1="28" y2="32"/>
<path d="M 424 24 A 8 8 0 0 0 418 28" fill="none"/>
</g>
<g>
<line x1="424" x2="448" y1="24" y2="24"/>
<path d="M 454 28 A 8 8 0 0 0 448 24" fill="none"/>
</g>
<g>
<line x1="424" x2="436" y1="56" y2="56"/>
</g>
<g>
<line x1="454" x2="456" y1="28" y2="32"/>
<path d="M 456 48 A 16 16 0 0 0 456 32" fill="none"/>
</g>
<g>
<line x1="454" x2="456" y1="52" y2="48"/>
</g>
<g>
<line x1="478" x2="480" y1="92" y2="96"/>
<line x1="480" x2="492" y1="96" y2="120"/>
<line x1="480" x2="492" y1="144" y2="120"/>
<line x1="492" x2="488" y1="120" y2="112"/>
<line x1="492" x2="488" y1="120" y2="128"/>
</g>
<g>
<line x1="478" x2="480" y1="148" y2="144"/>
</g>
<g>
<line class="dashed" fill="none" x1="180" x2="180" y1="0" y2="112"/>
</g>
<g>
<line class="dashed" fill="none" x1="180" x2="180" y1="128" y2="192"/>
</g>
<g>
<text x="9" y="28">
WebKit
</text>
</g>
<g>
<text x="65" y="28">
Web
</text>
</g>
<g>
<text x="81" y="108">
Web
</text>
</g>
<g>
<text x="81" y="124">
Content
</text>
</g>
<g>
<text x="81" y="140">
Frame
</text>
</g>
<g>
<text x="97" y="28">
Process
</text>
</g>
<g>
<text x="225" y="92">
GL
</text>
</g>
<g>
<text x="241" y="124">
Image
</text>
</g>
<g>
<text x="249" y="92">
Texture
</text>
</g>
<g>
<text x="393" y="124">
Scenegraph
</text>
</g>
<g>
<text x="401" y="108">
GTK
</text>
</g>
<g>
<text x="417" y="140">
node
</text>
</g>
<g>
<text x="433" y="108">
GSK
</text>
</g>
</svg>